<svg width="16" height="16" viewBox="0 0 16 16" fill="none" xmlns="http://www.w3.org/2000/svg">
<g clip-path="url(#clip0_830_450)">
<path d="M8 5.64333L12.6433 1L12.7613 1.118L12.8627 1.27C13.3555 2.00957 13.9899 2.64422 14.7293 3.13733L14.8827 3.23933L15 3.35733L10.3573 8L15 12.6433L14.882 12.7607L14.73 12.8627C13.9904 13.3555 13.3558 13.9899 12.8627 14.7293L12.7607 14.8827L12.6433 15L8 10.3573L3.35733 15L3.23933 14.882L3.13733 14.73C2.64447 13.9904 2.01005 13.3558 1.27067 12.8627L1.11733 12.7607L1 12.6433L5.64333 8L1 3.35733L1.118 3.23933L1.27067 3.13733C2.00998 2.6444 2.6444 2.00998 3.13733 1.27067L3.23933 1.11733L3.35733 1L8 5.64333Z" stroke="#080808"/>
</g>
<defs>
<clipPath id="clip0_830_450">
<rect width="16" height="16" fill="white"/>
</clipPath>
</defs>
</svg>
