<svg width="20" height="20" viewBox="0 0 20 20" fill="none" xmlns="http://www.w3.org/2000/svg">
<g clip-path="url(#clip0_835_730)">
<path d="M7.91634 7.50033V15.0003M12.083 7.50033V15.0003M7.08301 3.75033H2.08301V3.95866L2.28301 4.83366C3.25768 9.09775 3.74966 13.4579 3.74967 17.832V18.7503H16.2497V17.832C16.2497 13.4578 16.7413 9.09866 17.7163 4.83366L17.9163 3.95866V3.75033H12.9163M7.08301 3.75033V3.33366C7.08301 2.95064 7.15845 2.57137 7.30503 2.2175C7.4516 1.86363 7.66644 1.5421 7.93728 1.27126C8.20812 1.00043 8.52965 0.785586 8.88352 0.63901C9.23738 0.492434 9.61665 0.416992 9.99967 0.416992C10.3827 0.416992 10.762 0.492434 11.1158 0.63901C11.4697 0.785586 11.7912 1.00043 12.0621 1.27126C12.3329 1.5421 12.5477 1.86363 12.6943 2.2175C12.8409 2.57137 12.9163 2.95064 12.9163 3.33366V3.75033M7.08301 3.75033H12.9163" stroke="#080808" stroke-opacity="0.6"/>
</g>
<defs>
<clipPath id="clip0_835_730">
<rect width="20" height="20" fill="white"/>
</clipPath>
</defs>
</svg>
